<svg width="75" height="55" viewBox="0 0 75 55" fill="none" xmlns="http://www.w3.org/2000/svg">
<path d="M64.0235 0.643579C63.1656 -0.214526 61.7743 -0.214526 60.9162 0.643579C60.0581 1.50168 60.0581 2.89285 60.9162 3.75095C67.1646 9.99924 70.6057 18.3128 70.6057 27.16C70.6057 36.0072 67.1646 44.3208 60.9162 50.5691C60.0581 51.4271 60.0581 52.8184 60.9162 53.6765C61.7757 54.5361 63.1669 54.5331 64.0235 53.6765C71.102 46.5982 75.0002 37.1812 75.0002 27.16C75.0002 17.1389 71.102 7.72185 64.0235 0.643579Z" fill="#F82F2F"/>
<path d="M57.3701 7.29691C56.512 6.43895 55.1207 6.43895 54.2627 7.29691C53.4048 8.15502 53.4048 9.54618 54.2627 10.4043C58.7353 14.8766 61.1986 20.8274 61.1986 27.1602C61.1986 33.493 58.7355 39.4436 54.2627 43.9161C53.4046 44.7742 53.4046 46.1654 54.2627 47.0235C55.1205 47.8813 56.5117 47.8817 57.3701 47.0235C62.6728 41.721 65.5931 34.6668 65.5931 27.16C65.5931 19.6533 62.6727 12.5992 57.3701 7.29691Z" fill="#F82F2F"/>
<path d="M50.712 13.9546C49.8539 13.0967 48.4626 13.0967 47.6046 13.9546C46.7465 14.8127 46.7467 16.204 47.6046 17.062C50.3 19.757 51.7843 23.3432 51.7843 27.1598C51.7843 30.9763 50.3 34.5625 47.6046 37.2575C46.7465 38.1155 46.7465 39.5068 47.6046 40.3649C48.4626 41.2228 49.8538 41.2231 50.712 40.3649C54.2373 36.8397 56.1788 32.15 56.1788 27.1596C56.1788 22.1692 54.2373 17.4798 50.712 13.9546Z" fill="#F82F2F"/>
<path d="M4.39453 27.1607C4.39453 18.3135 7.8356 9.99992 14.084 3.75163C14.9421 2.89367 14.9421 1.50236 14.084 0.644257C13.2261 -0.213702 11.8349 -0.213849 10.9767 0.644257C3.89824 7.72253 0 17.1396 0 27.1607C0 37.1819 3.89824 46.5989 10.9767 53.6772C11.8345 54.5351 13.2259 54.5354 14.084 53.6772C14.9421 52.8191 14.9421 51.4279 14.084 50.5698C7.8356 44.3215 4.39453 36.0079 4.39453 27.1607Z" fill="#F82F2F"/>
<path d="M13.8016 27.16C13.8016 20.8272 16.2648 14.8766 20.7375 10.4041C21.5956 9.54599 21.5956 8.15483 20.7375 7.29672C19.8796 6.43862 18.4883 6.43876 17.6302 7.29672C12.3274 12.599 9.4071 19.6534 9.4071 27.16C9.4071 34.6666 12.3274 41.721 17.6302 47.0234C18.4894 47.8826 19.8806 47.8804 20.7375 47.0234C21.5955 46.1653 21.5955 44.7742 20.7375 43.9161C16.2648 39.4436 13.8016 33.4928 13.8016 27.16Z" fill="#F82F2F"/>
<path d="M27.3956 13.9551C26.5376 13.097 25.1463 13.097 24.2882 13.9551C20.7629 17.4802 18.8214 22.1699 18.8214 27.1604C18.8214 32.1508 20.7629 36.8405 24.2882 40.3657C25.1475 41.2248 26.5386 41.2226 27.3956 40.3657C28.2537 39.5075 28.2535 38.1162 27.3956 37.2583C24.7003 34.5633 23.2159 30.977 23.2159 27.1605C23.2159 23.344 24.7003 19.7578 27.3956 17.0628C28.2535 16.2045 28.2535 14.8132 27.3956 13.9551Z" fill="#F82F2F"/>
<path d="M37.5 17.9022C32.3952 17.9022 28.2422 22.0553 28.2422 27.16C28.2422 32.2647 32.3953 36.4179 37.5 36.4179C42.6047 36.4179 46.7578 32.2647 46.7578 27.16C46.7578 22.0553 42.6048 17.9022 37.5 17.9022ZM37.5 32.0233C34.8183 32.0233 32.6367 29.8416 32.6367 27.16C32.6367 24.4785 34.8185 22.2968 37.5 22.2968C40.1815 22.2968 42.3633 24.4785 42.3633 27.16C42.3633 29.8416 40.1817 32.0233 37.5 32.0233Z" fill="#F82F2F"/>
</svg>
